<svg width="71" height="36" viewBox="0 0 71 36" fill="none" xmlns="http://www.w3.org/2000/svg">
<g filter="url(#filter0_i_160_16)">
<path d="M1.8047 31.6053H6.80344C10.4032 31.6053 12.8711 29.4361 12.8711 26.1036C12.8711 22.7711 10.4032 20.6018 6.80344 20.6018H1.8047V31.6053ZM4.35123 29.5147V22.6925H6.67768C8.86267 22.6925 10.2931 23.9972 10.2931 26.1036C10.2931 28.21 8.86267 29.5147 6.67768 29.5147H4.35123ZM18.0297 23.0226C16.6779 23.0226 15.3103 23.3842 14.3828 24.0444L15.2631 25.7578C15.8762 25.2705 16.8036 24.9718 17.6996 24.9718C19.02 24.9718 19.6488 25.5849 19.6488 26.638H17.6996C15.1216 26.638 14.0685 27.6755 14.0685 29.1689C14.0685 30.6308 15.2474 31.7311 17.228 31.7311C18.4699 31.7311 19.3501 31.3224 19.806 30.5522V31.6053H22.101V26.7795C22.101 24.2173 20.6077 23.0226 18.0297 23.0226ZM17.8411 30.0806C16.9765 30.0806 16.4578 29.6719 16.4578 29.0588C16.4578 28.4929 16.8193 28.0685 17.9668 28.0685H19.6488V28.9331C19.3659 29.7033 18.6585 30.0806 17.8411 30.0806ZM29.1148 29.4675C28.8475 29.6719 28.486 29.7819 28.1245 29.7819C27.4642 29.7819 27.0713 29.3889 27.0713 28.6658V25.2233H29.1776V23.337H27.0713V21.2778H24.6191V23.337H23.3144V25.2233H24.6191V28.6973C24.6191 30.7093 25.7823 31.7311 27.7786 31.7311C28.5332 31.7311 29.272 31.5582 29.775 31.1966L29.1148 29.4675ZM39.1746 27.4083C39.1746 24.6889 37.2569 23.0226 34.7732 23.0226C32.1953 23.0226 30.2618 24.846 30.2618 27.3769C30.2618 29.8919 32.1638 31.7311 35.0876 31.7311C36.6124 31.7311 37.7913 31.2595 38.5773 30.3635L37.2726 28.9488C36.691 29.499 36.0465 29.7662 35.1505 29.7662C33.8615 29.7662 32.9655 29.1217 32.7297 28.0685H39.1275C39.1432 27.8642 39.1746 27.5969 39.1746 27.4083ZM34.7889 24.8775C35.8893 24.8775 36.691 25.5691 36.8639 26.638H32.6983C32.8712 25.5534 33.6729 24.8775 34.7889 24.8775ZM41.7347 31.7311C42.5835 31.7311 43.2594 31.0866 43.2594 30.1906C43.2594 29.2789 42.5835 28.6816 41.7347 28.6816C40.8858 28.6816 40.2099 29.2789 40.2099 30.1906C40.2099 31.0866 40.8858 31.7311 41.7347 31.7311ZM55.7519 23.0226C54.4786 23.0226 53.3782 23.5413 52.7023 24.4059C52.105 23.4785 51.0989 23.0226 49.92 23.0226C48.8354 23.0226 47.8922 23.3999 47.2634 24.123V23.1484H44.9213V31.6053H47.3735V27.3611C47.3735 25.8521 48.1437 25.1447 49.2284 25.1447C50.2501 25.1447 50.8317 25.7735 50.8317 27.1411V31.6053H53.2839V27.3611C53.2839 25.8521 54.0542 25.1447 55.1545 25.1447C56.1448 25.1447 56.7579 25.7735 56.7579 27.1411V31.6053H59.2101V26.7638C59.2101 24.1858 57.7639 23.0226 55.7519 23.0226ZM69.7843 27.4083C69.7843 24.6889 67.8665 23.0226 65.3829 23.0226C62.8049 23.0226 60.8714 24.846 60.8714 27.3769C60.8714 29.8919 62.7735 31.7311 65.6973 31.7311C67.222 31.7311 68.401 31.2595 69.187 30.3635L67.8822 28.9488C67.3006 29.499 66.6561 29.7662 65.7601 29.7662C64.4712 29.7662 63.5752 29.1217 63.3394 28.0685H69.7371C69.7528 27.8642 69.7843 27.5969 69.7843 27.4083ZM65.3986 24.8775C66.499 24.8775 67.3006 25.5691 67.4735 26.638H63.3079C63.4808 25.5534 64.2825 24.8775 65.3986 24.8775Z" fill="url(#paint0_linear_160_16)"/>
</g>
<g filter="url(#filter1_b_160_16)">
<path d="M48.1169 11.1639C47.8166 10.812 47.4545 10.5187 47.0583 10.2809C46.1893 9.75078 45.1689 9.53125 44.1514 9.64566C44.1209 9.56841 44.0748 9.48866 44.0342 9.41393C43.9944 9.33794 43.9376 9.17655 43.8735 9.06979L43.699 8.81984C43.6149 8.6754 43.5138 8.54641 43.4018 8.41855C43.3964 8.39908 43.3854 8.37459 43.3675 8.34758L43.3304 8.32535C43.0351 7.97642 42.6935 7.67747 42.3051 7.42813L42.236 7.38667C42.0602 7.28116 41.8779 7.18795 41.686 7.10779L41.6106 7.06257C41.4076 6.97401 41.1935 6.90528 40.9737 6.85878C38.1708 6.21942 35.8095 8.26121 35.185 10.9098C34.9051 12.2869 34.9341 13.7058 35.2671 15.0578C35.7824 16.9728 36.4949 18.8181 37.397 20.5724L37.4996 20.7714L37.7135 20.7708C39.6846 20.7325 41.6407 20.4888 43.5579 20.0423C44.9133 19.7036 46.1822 19.0551 47.2595 18.1567C49.2912 16.3526 49.9823 13.3084 48.1169 11.1639V11.1639Z" fill="url(#paint1_linear_160_16)"/>
</g>
<g opacity="0.5" filter="url(#filter2_f_160_16)">
<path d="M43.9974 12.1111C43.8078 11.889 43.5793 11.7039 43.3293 11.5538C42.7809 11.2193 42.137 11.0808 41.4949 11.153C41.4757 11.1042 41.4466 11.0539 41.421 11.0068C41.3959 10.9588 41.36 10.857 41.3196 10.7896L41.2094 10.6319C41.1564 10.5407 41.0926 10.4593 41.0219 10.3786C41.0185 10.3663 41.0116 10.3509 41.0003 10.3338L40.9769 10.3198C40.7905 10.0996 40.575 9.91098 40.3299 9.75363L40.2863 9.72747C40.1753 9.66089 40.0603 9.60207 39.9392 9.55149L39.8916 9.52295C39.7635 9.46706 39.6284 9.42369 39.4897 9.39435C37.721 8.99089 36.2309 10.2793 35.8368 11.9507C35.6602 12.8197 35.6784 13.7151 35.8886 14.5683C36.2137 15.7767 36.6634 16.9412 37.2326 18.0482L37.2974 18.1738L37.4323 18.1734C38.6762 18.1493 39.9106 17.9954 41.1204 17.7137C41.9757 17.5 42.7765 17.0907 43.4563 16.5238C44.7383 15.3853 45.1745 13.4643 43.9974 12.1111V12.1111Z" fill="#EE2965"/>
</g>
<g filter="url(#filter3_b_160_16)">
<path d="M46.3564 4.74206C46.2835 4.6704 46.1981 4.61286 46.1063 4.56819C45.9047 4.46834 45.6758 4.4398 45.454 4.48472C45.4457 4.46831 45.434 4.45165 45.4237 4.43598C45.4134 4.42002 45.3978 4.3856 45.3816 4.36333L45.3383 4.31169C45.317 4.28152 45.2923 4.25509 45.2651 4.22911C45.2636 4.22493 45.2607 4.21975 45.2562 4.21415L45.2476 4.20997C45.1758 4.13888 45.0948 4.07969 45.0045 4.03233L44.9885 4.02455C44.9477 4.00473 44.9058 3.98774 44.862 3.97382L44.8445 3.96532C44.7981 3.94976 44.7496 3.93879 44.7003 3.93281C44.0708 3.84642 43.5906 4.34174 43.5045 4.93696C43.4696 5.24555 43.5035 5.55738 43.603 5.84857C43.7536 6.26016 43.9462 6.65261 44.1789 7.02132L44.2053 7.06316L44.2524 7.05888C44.6856 7.01221 45.1115 6.9206 45.525 6.78512C45.8168 6.68427 46.0836 6.51688 46.3033 6.29819C46.7156 5.8616 46.8087 5.17799 46.3564 4.74206V4.74206Z" fill="url(#paint2_linear_160_16)"/>
</g>
<g filter="url(#filter4_b_160_16)">
<mask id="path-5-outside-1_160_16" maskUnits="userSpaceOnUse" x="18.7477" y="-0.698252" width="26.4147" height="25.5999" fill="black">
<rect fill="white" x="18.7477" y="-0.698252" width="26.4147" height="25.5999"/>
<path d="M36.4953 1.48191C35.8281 1.37944 35.1486 1.40053 34.4843 1.51549C33.0192 1.75821 31.6828 2.48826 30.6679 3.58447C30.5606 3.52823 30.4337 3.48405 30.3176 3.44016C30.2012 3.39416 29.9846 3.27009 29.8121 3.2132L29.3811 3.10346C29.1505 3.0241 28.9159 2.97795 28.6703 2.94347C28.6458 2.92711 28.6104 2.91047 28.5648 2.89776L28.5027 2.90851C27.8439 2.80458 27.1817 2.79991 26.5149 2.89469L26.3991 2.91473C26.1044 2.96575 25.8141 3.03658 25.5258 3.13094L25.3994 3.1528C25.0907 3.24852 24.7887 3.37669 24.5016 3.5348C20.7962 5.49998 20.1339 10.006 21.9685 13.5269C22.9719 15.3147 24.3562 16.8545 26.0127 18.0305C28.4071 19.6546 30.9529 21.0139 33.6214 22.0918L33.9245 22.2139L34.1601 22.0094C36.301 20.0884 38.2293 17.9547 39.9215 15.6343C41.0959 13.9683 41.8794 12.0425 42.2131 10.0233C42.7377 6.09412 40.5997 2.07275 36.4953 1.48191V1.48191Z"/>
</mask>
<path d="M36.4953 1.48191C35.8281 1.37944 35.1486 1.40053 34.4843 1.51549C33.0192 1.75821 31.6828 2.48826 30.6679 3.58447C30.5606 3.52823 30.4337 3.48405 30.3176 3.44016C30.2012 3.39416 29.9846 3.27009 29.8121 3.2132L29.3811 3.10346C29.1505 3.0241 28.9159 2.97795 28.6703 2.94347C28.6458 2.92711 28.6104 2.91047 28.5648 2.89776L28.5027 2.90851C27.8439 2.80458 27.1817 2.79991 26.5149 2.89469L26.3991 2.91473C26.1044 2.96575 25.8141 3.03658 25.5258 3.13094L25.3994 3.1528C25.0907 3.24852 24.7887 3.37669 24.5016 3.5348C20.7962 5.49998 20.1339 10.006 21.9685 13.5269C22.9719 15.3147 24.3562 16.8545 26.0127 18.0305C28.4071 19.6546 30.9529 21.0139 33.6214 22.0918L33.9245 22.2139L34.1601 22.0094C36.301 20.0884 38.2293 17.9547 39.9215 15.6343C41.0959 13.9683 41.8794 12.0425 42.2131 10.0233C42.7377 6.09412 40.5997 2.07275 36.4953 1.48191V1.48191Z" fill="#FF749F" fill-opacity="0.35"/>
<path d="M34.4843 1.51549L34.5245 1.75781L34.5262 1.75751L34.4843 1.51549ZM30.6679 3.58447L30.5539 3.80202C30.6521 3.85352 30.7727 3.83275 30.8481 3.75134L30.6679 3.58447ZM30.3176 3.44016L30.2273 3.6686L30.2307 3.66988L30.3176 3.44016ZM29.8121 3.2132L29.889 2.97994C29.8836 2.97817 29.8782 2.97658 29.8727 2.97518L29.8121 3.2132ZM29.3811 3.10346L29.3011 3.33571C29.3075 3.3379 29.314 3.33982 29.3205 3.34148L29.3811 3.10346ZM28.6703 2.94347L28.534 3.14778C28.5647 3.16827 28.5996 3.18157 28.6361 3.1867L28.6703 2.94347ZM28.5648 2.89776L28.6308 2.66118C28.5957 2.65138 28.5588 2.64952 28.5229 2.65574L28.5648 2.89776ZM28.5027 2.90851L28.4644 3.15112C28.491 3.15531 28.5181 3.15511 28.5446 3.15052L28.5027 2.90851ZM26.5149 2.89469L26.4804 2.65141L26.4731 2.65267L26.5149 2.89469ZM25.5258 3.13094L25.5676 3.37296C25.5793 3.37093 25.5909 3.36806 25.6021 3.36437L25.5258 3.13094ZM25.3994 3.1528L25.3575 2.91079C25.3471 2.91259 25.3368 2.91507 25.3267 2.91821L25.3994 3.1528ZM24.5016 3.5348L24.6167 3.75181L24.6201 3.74994L24.5016 3.5348ZM21.9685 13.5269L21.7506 13.6404L21.7543 13.6471L21.9685 13.5269ZM26.0127 18.0305L25.8705 18.2308L25.8748 18.2338L26.0127 18.0305ZM33.6214 22.0918L33.5294 22.3195L33.5296 22.3196L33.6214 22.0918ZM33.9245 22.2139L33.8327 22.4417C33.9182 22.4762 34.0158 22.4599 34.0854 22.3994L33.9245 22.2139ZM34.1601 22.0094L34.3211 22.1949L34.3242 22.1922L34.1601 22.0094ZM39.9215 15.6343L40.12 15.779L40.1222 15.7758L39.9215 15.6343ZM42.2131 10.0233L42.4555 10.0634L42.4565 10.0558L42.2131 10.0233ZM36.4953 1.48191L36.458 1.72469L36.4603 1.72502L36.4953 1.48191ZM36.5326 1.23915C35.8357 1.13211 35.1293 1.15461 34.4425 1.27347L34.5262 1.75751C35.168 1.64644 35.8205 1.62677 36.458 1.72468L36.5326 1.23915ZM34.4442 1.27318C32.9241 1.52501 31.5388 2.28231 30.4877 3.4176L30.8481 3.75134C31.8269 2.69421 33.1143 1.99141 34.5245 1.7578L34.4442 1.27318ZM30.7819 3.36692C30.6575 3.30173 30.5104 3.25047 30.4045 3.21043L30.2307 3.66988C30.3569 3.71763 30.4636 3.75472 30.5539 3.80202L30.7819 3.36692ZM30.4079 3.21173C30.3613 3.1933 30.293 3.15833 30.1933 3.10986C30.1031 3.06603 29.9926 3.0141 29.889 2.97994L29.7352 3.44645C29.8041 3.46919 29.8882 3.50774 29.9785 3.55166C30.0594 3.59095 30.1576 3.64101 30.2274 3.66858L30.4079 3.21173ZM29.8727 2.97518L29.4417 2.86544L29.3205 3.34148L29.7515 3.45122L29.8727 2.97518ZM29.461 2.87122C29.2098 2.78475 28.9581 2.73586 28.7044 2.70024L28.6361 3.1867C28.8737 3.22005 29.0912 3.26345 29.3011 3.33571L29.461 2.87122ZM28.8066 2.73916C28.7569 2.706 28.6968 2.6796 28.6308 2.66118L28.4988 3.13434C28.5108 3.13769 28.5198 3.14111 28.526 3.14385C28.5324 3.14667 28.5348 3.14834 28.534 3.14778L28.8066 2.73916ZM28.5229 2.65574L28.4608 2.66649L28.5446 3.15052L28.6067 3.13977L28.5229 2.65574ZM28.541 2.66589C27.8578 2.55813 27.171 2.55334 26.4804 2.65152L26.5495 3.13786C27.1923 3.04649 27.8299 3.05103 28.4644 3.15112L28.541 2.66589ZM26.4731 2.65267L26.3573 2.67272L26.441 3.15675L26.5568 3.13671L26.4731 2.65267ZM26.3573 2.67272C26.0514 2.72564 25.7496 2.79926 25.4494 2.89751L25.6021 3.36437C25.8786 3.2739 26.1573 3.20585 26.441 3.15675L26.3573 2.67272ZM25.4839 2.88892L25.3575 2.91079L25.4413 3.39482L25.5676 3.37296L25.4839 2.88892ZM25.3267 2.91821C25.0021 3.01884 24.6847 3.15353 24.3831 3.31966L24.6201 3.74994C24.8926 3.59985 25.1793 3.47819 25.4722 3.3874L25.3267 2.91821ZM24.3865 3.31781C20.529 5.36369 19.8725 10.0358 21.7507 13.6404L22.1863 13.4134C20.3953 9.97616 21.0634 5.63627 24.6167 3.75178L24.3865 3.31781ZM21.7543 13.6471C22.7754 15.4664 24.1843 17.0336 25.8705 18.2308L26.1549 17.8302C24.5282 16.6753 23.1683 15.163 22.1827 13.4067L21.7543 13.6471ZM25.8748 18.2338C28.2835 19.8675 30.8447 21.2351 33.5294 22.3195L33.7134 21.8641C31.0612 20.7927 28.5306 19.4416 26.1506 17.8272L25.8748 18.2338ZM33.5296 22.3196L33.8327 22.4417L34.0163 21.9861L33.7132 21.864L33.5296 22.3196ZM34.0854 22.3994L34.3211 22.1949L33.9992 21.8239L33.7635 22.0284L34.0854 22.3994ZM34.3242 22.1922C36.4777 20.2597 38.4176 18.1133 40.1199 15.779L39.723 15.4895C38.041 17.7961 36.1242 19.917 33.9961 21.8266L34.3242 22.1922ZM40.1222 15.7758C41.3183 14.0791 42.1158 12.1186 42.4554 10.0633L41.9708 9.98327C41.6431 11.9665 40.8735 13.8575 39.7208 15.4927L40.1222 15.7758ZM42.4565 10.0558C42.9934 6.03542 40.8066 1.85439 36.5303 1.23881L36.4603 1.72502C40.3928 2.29112 42.4821 6.15282 41.9696 9.9908L42.4565 10.0558Z" fill="url(#paint3_linear_160_16)" mask="url(#path-5-outside-1_160_16)"/>
</g>
<g filter="url(#filter5_bd_160_16)">
<path d="M39.2895 7.66549C39.3347 8.11417 39.0261 8.52429 38.5965 8.61057C38.3611 8.62855 38.122 8.56258 37.9436 8.40912C37.7652 8.25566 37.6523 8.03557 37.6306 7.79102L37.625 7.75839C37.4976 7.02251 36.931 6.43638 36.2125 6.3005C35.7432 6.22016 35.4278 5.77597 35.4986 5.30831C35.58 4.83882 36.0135 4.52417 36.4708 4.59791C37.9192 4.87855 39.0442 6.05983 39.2679 7.54021L39.2895 7.66549Z" fill="url(#paint4_linear_160_16)"/>
<path d="M37.6796 7.78668L37.6797 7.78666L37.679 7.78265L37.6734 7.75001C37.5426 6.99461 36.9609 6.39204 36.2216 6.25223L36.2216 6.25223L36.2208 6.25208C35.7783 6.17634 35.4805 5.75753 35.5471 5.31618C35.6243 4.8728 36.0329 4.57748 36.4622 4.64629C37.8895 4.92318 38.9987 6.08764 39.2193 7.54755L39.2193 7.54755L39.2195 7.54859L39.2408 7.67212C39.2824 8.09394 38.9926 8.47934 38.5898 8.56181C38.3665 8.57815 38.142 8.51503 37.9756 8.37188C37.8072 8.22696 37.7002 8.01878 37.6796 7.78668Z" stroke="url(#paint5_linear_160_16)" stroke-width="0.0982456"/>
</g>
<defs>
<filter id="filter0_i_160_16" x="1.80469" y="20.6018" width="67.9796" height="12.1117" filterUnits="userSpaceOnUse" color-interpolation-filters="sRGB">
<feFlood flood-opacity="0" result="BackgroundImageFix"/>
<feBlend mode="normal" in="SourceGraphic" in2="BackgroundImageFix" result="shape"/>
<feColorMatrix in="SourceAlpha" type="matrix" values="0 0 0 0 0 0 0 0 0 0 0 0 0 0 0 0 0 0 127 0" result="hardAlpha"/>
<feOffset dy="0.982456"/>
<feGaussianBlur stdDeviation="0.491228"/>
<feComposite in2="hardAlpha" operator="arithmetic" k2="-1" k3="1"/>
<feColorMatrix type="matrix" values="0 0 0 0 0 0 0 0 0 0 0 0 0 0 0 0 0 0 0.25 0"/>
<feBlend mode="normal" in2="shape" result="effect1_innerShadow_160_16"/>
</filter>
<filter id="filter1_b_160_16" x="31.8013" y="3.54762" width="20.5979" height="20.4168" filterUnits="userSpaceOnUse" color-interpolation-filters="sRGB">
<feFlood flood-opacity="0" result="BackgroundImageFix"/>
<feGaussianBlur in="BackgroundImageFix" stdDeviation="1.59649"/>
<feComposite in2="SourceAlpha" operator="in" result="effect1_backgroundBlur_160_16"/>
<feBlend mode="normal" in="SourceGraphic" in2="effect1_backgroundBlur_160_16" result="shape"/>
</filter>
<filter id="filter2_f_160_16" x="31.2954" y="4.89877" width="17.8104" height="17.6961" filterUnits="userSpaceOnUse" color-interpolation-filters="sRGB">
<feFlood flood-opacity="0" result="BackgroundImageFix"/>
<feBlend mode="normal" in="SourceGraphic" in2="BackgroundImageFix" result="shape"/>
<feGaussianBlur stdDeviation="2.21053" result="effect1_foregroundBlur_160_16"/>
</filter>
<filter id="filter3_b_160_16" x="40.2981" y="0.729991" width="9.55125" height="9.5261" filterUnits="userSpaceOnUse" color-interpolation-filters="sRGB">
<feFlood flood-opacity="0" result="BackgroundImageFix"/>
<feGaussianBlur in="BackgroundImageFix" stdDeviation="1.59649"/>
<feComposite in2="SourceAlpha" operator="in" result="effect1_backgroundBlur_160_16"/>
<feBlend mode="normal" in="SourceGraphic" in2="effect1_backgroundBlur_160_16" result="shape"/>
</filter>
<filter id="filter4_b_160_16" x="14.8438" y="-4.72445" width="33.5874" height="33.0788" filterUnits="userSpaceOnUse" color-interpolation-filters="sRGB">
<feFlood flood-opacity="0" result="BackgroundImageFix"/>
<feGaussianBlur in="BackgroundImageFix" stdDeviation="2.94737"/>
<feComposite in2="SourceAlpha" operator="in" result="effect1_backgroundBlur_160_16"/>
<feBlend mode="normal" in="SourceGraphic" in2="effect1_backgroundBlur_160_16" result="shape"/>
</filter>
<filter id="filter5_bd_160_16" x="31.8044" y="0.902948" width="11.1737" height="11.3947" filterUnits="userSpaceOnUse" color-interpolation-filters="sRGB">
<feFlood flood-opacity="0" result="BackgroundImageFix"/>
<feGaussianBlur in="BackgroundImageFix" stdDeviation="1.84211"/>
<feComposite in2="SourceAlpha" operator="in" result="effect1_backgroundBlur_160_16"/>
<feColorMatrix in="SourceAlpha" type="matrix" values="0 0 0 0 0 0 0 0 0 0 0 0 0 0 0 0 0 0 127 0" result="hardAlpha"/>
<feOffset dx="1.22807" dy="1.22807"/>
<feGaussianBlur stdDeviation="1.22807"/>
<feColorMatrix type="matrix" values="0 0 0 0 1 0 0 0 0 0.321569 0 0 0 0 0.54902 0 0 0 0.5 0"/>
<feBlend mode="normal" in2="effect1_backgroundBlur_160_16" result="effect2_dropShadow_160_16"/>
<feBlend mode="normal" in="SourceGraphic" in2="effect2_dropShadow_160_16" result="shape"/>
</filter>
<linearGradient id="paint0_linear_160_16" x1="22.6053" y1="21.5989" x2="90.0402" y2="43.852" gradientUnits="userSpaceOnUse">
<stop stop-color="#FA3873"/>
<stop offset="1" stop-color="#F970A2"/>
</linearGradient>
<linearGradient id="paint1_linear_160_16" x1="41.506" y1="16.1488" x2="27.3736" y2="15.1935" gradientUnits="userSpaceOnUse">
<stop stop-color="#FF759F"/>
<stop offset="1" stop-color="#FF196E"/>
</linearGradient>
<linearGradient id="paint2_linear_160_16" x1="44.9977" y1="5.96775" x2="41.8678" y2="6.03156" gradientUnits="userSpaceOnUse">
<stop stop-color="#FF759F"/>
<stop offset="1" stop-color="#FF196E"/>
</linearGradient>
<linearGradient id="paint3_linear_160_16" x1="23.6585" y1="5.78898" x2="39.1095" y2="20.0427" gradientUnits="userSpaceOnUse">
<stop stop-color="white" stop-opacity="0.25"/>
<stop offset="1" stop-color="white" stop-opacity="0"/>
</linearGradient>
<linearGradient id="paint4_linear_160_16" x1="38.5834" y1="4.98559" x2="34.8891" y2="5.72148" gradientUnits="userSpaceOnUse">
<stop stop-color="white"/>
<stop offset="1" stop-color="white" stop-opacity="0.2"/>
</linearGradient>
<linearGradient id="paint5_linear_160_16" x1="35.9722" y1="5.15385" x2="39.2397" y2="7.35768" gradientUnits="userSpaceOnUse">
<stop stop-color="white" stop-opacity="0.25"/>
<stop offset="1" stop-color="white" stop-opacity="0"/>
</linearGradient>
</defs>
</svg>
